<?xml version="1.0" encoding="utf-8"?>
<!-- Generator: Adobe Illustrator 19.1.1, SVG Export Plug-In . SVG Version: 6.00 Build 0)  -->
<svg version="1.1" id="Layer_1" xmlns="http://www.w3.org/2000/svg" xmlns:xlink="http://www.w3.org/1999/xlink" x="0px" y="0px"
	 viewBox="0 0 200 200" style="enable-background:new 0 0 200 200;" xml:space="preserve">
<style type="text/css">
	.st0{fill:#84BAE5;}
	.st1{clip-path:url(#SVGID_2_);fill:#1A5095;}
	.st2{clip-path:url(#SVGID_2_);fill:#A17F4F;}
	.st3{clip-path:url(#SVGID_2_);fill:#91C77C;}
	.st4{clip-path:url(#SVGID_2_);fill:#DD6052;}
	
		.st5{clip-path:url(#SVGID_4_);fill:none;stroke:#FFFFFF;stroke-width:6.9705;stroke-linecap:round;stroke-linejoin:round;stroke-miterlimit:10;}
	
		.st6{clip-path:url(#SVGID_4_);fill:none;stroke:#FFFFFF;stroke-width:7;stroke-linecap:round;stroke-linejoin:round;stroke-miterlimit:10;}
	
		.st7{clip-path:url(#SVGID_4_);fill:none;stroke:#FFFFFF;stroke-width:6.8411;stroke-linecap:round;stroke-linejoin:round;stroke-miterlimit:10;}
	.st8{fill:#F6C416;}
	.st9{fill:#FFFFFF;}
</style>
<g>
	<circle class="st0" cx="101.6" cy="99" r="84.3"/>
	<g>
		<defs>
			<circle id="SVGID_1_" cx="101.4" cy="99.2" r="84.3"/>
		</defs>
		<clipPath id="SVGID_2_">
			<use xlink:href="#SVGID_1_"  style="overflow:visible;"/>
		</clipPath>
		<path class="st1" d="M116.8,11.2c-1.1,17.9-0.4,36.3-1.5,54.1c-0.2,3.1,0.7,3.3,3.6,3.6c2.1,0.2,4.3,0,6.4,0
			c4.8,0,9.4,0.3,14.2,0.3c5.5,0,10.6,0.5,16.1,0.5c4.9,0,9.7-0.7,14.6-0.8c4,0,10.6,2.1,13.3-1.1c4.1-4.8-0.1-12.3-3.3-16.4
			c-4.9-6.2-10.6-11-16.9-15.6c-4.8-3.5-8.8-7-12.9-11.2c-4.5-4.6-11.4-8.5-17.7-10.3c-4.5-1.3-10.4-4-15.1-3.7"/>
		<path class="st2" d="M190.2,112.1c-4.3,0.5-9-0.7-13.4-0.3c-5,0.5-10,0.5-15.1,0.5c-7.1,0-22.4-3.2-20.2,7.9
			c1.7,8.8-0.5,18.4,0.4,27.5c0.2,1.9,0.7,4.4,0.3,6.4c-0.6,2.8-2.2,2.8-4.9,3.1c-4.3,0.4-8.1-0.8-12.3-1c-3.5-0.2-6.1,1.5-9.5,1.3
			c-1.8,3.9,0,9.2,0,13.2c0,2.6-0.1,5.2-0.3,7.8c-0.1,1.7-1.2,4.9-0.1,6.2c1.1,1.2,4.9,1.2,6.5,1.2c2.5,0,5.2-0.8,7.5-1.5
			c3.1-0.9,4.9-2.8,7.6-4.6c2.8-1.9,5.8-2.9,8.8-4.4c2.9-1.4,4.8-3.4,7.4-5.4c2-1.6,4-2.3,6.1-3.6c4.8-2.9,7.7-9.5,12.1-13.1
			c5.3-4.5,10.7-10.3,13.3-17.2c2-5.4,2.4-11.4,4.7-16.7c0.8-2,1.5-3.8,1.3-6.1"/>
		<path class="st3" d="M19.5,135.4c-0.5-4.4,3-7.9,5.1-11.3c1.9-3.2,2.7-7.8,5.4-10.3c3.2-3.1,8.3-0.9,11.9-0.4
			c4.9,0.6,9.4-0.1,14.4-0.3c6.2-0.2,12.9,0,19.2,0.3c1.4,7.1,1.5,14.4,1.8,21.8c0.2,3.6-0.8,6.6-1.3,10c-0.5,3.3-0.4,6.7-0.6,10.2
			c-9.2,0.5-18.3,0.8-27.4,0.8c-2.3,0-4.6-0.1-6.9,0c-2.2,0.1-5,1.1-7.2,0.5c-4.6-1.3-8.3-5.4-9.8-9.8c-1.3-3.9-3.6-6.8-5.1-10.8"/>
		<path class="st4" d="M32.4,112.1c2.4-2.5,9-0.2,12.1,0.3c4.4,0.6,6.9,0.7,10.8-2c3.1-2.1,4.8-6.2,6.4-9.6c1.1-2.3,2.1-10.2,4.7-11
			c7.2-2.1,6.1,20.2,8.7,22.5c2,1.8,9.8,0.8,12.5,1.1c3.6,0.3,10.1,1.3,10-3.8c-0.1-3.2-3.2-6.7-4.6-9.5c-1.7-3.3-3.5-7-4.8-10.5
			c-1.5-4-2.8-8-3.8-12.1c-0.5-1.8-0.7-3.9-1.6-5.6c-0.9-1.8-2.4-3.2-3.3-5.1c-3.7-7.9-6-17.3-11.3-24.4c-2.3,2.1-4.3,6.7-5.1,9.8
			c-1.1,4.4-2.8,8-5.5,11.8c-2.4,3.5-3.8,7.3-6,10.8c-2.3,3.5-4.8,6.9-6.5,10.7c-2.1,4.6-4.1,9.1-6.8,13.6c-2.1,3.5-7,8.9-7,13.1"/>
	</g>
	<g>
		<defs>
			<circle id="SVGID_3_" cx="101.6" cy="99" r="84.3"/>
		</defs>
		<clipPath id="SVGID_4_">
			<use xlink:href="#SVGID_3_"  style="overflow:visible;"/>
		</clipPath>
		<line class="st5" x1="31.8" y1="112.7" x2="188.8" y2="112.7"/>
		<line class="st6" x1="83.9" y1="10.8" x2="19.1" y2="136"/>
		<line class="st6" x1="55.9" y1="110.8" x2="66.7" y2="88.3"/>
		<line class="st6" x1="67.7" y1="86.3" x2="76" y2="110.8"/>
		<line class="st6" x1="2" y1="155.9" x2="142.7" y2="155.9"/>
		<line class="st6" x1="116.1" y1="13.9" x2="116.1" y2="112.7"/>
		<line class="st7" x1="143.1" y1="155.9" x2="143.1" y2="113.3"/>
		<line class="st6" x1="117.1" y1="69.1" x2="193.7" y2="69.1"/>
		<line class="st6" x1="115.7" y1="157.1" x2="115.7" y2="188.7"/>
		<line class="st6" x1="76" y1="112.7" x2="76" y2="187.3"/>
		<line class="st6" x1="58.3" y1="15.7" x2="99" y2="112.7"/>
	</g>
	<g>
		<g>
			<path class="st8" d="M171.8,97.3c0,7.2-5.8,13.1-13.1,13.1c-6.6,0-12-4.8-12.9-11.1c-0.1-0.6-0.1-1.3-0.1-1.9
				c0-7.2,5.8-13.1,13.1-13.1C165.9,84.2,171.8,90.1,171.8,97.3z"/>
			<polyline class="st8" points="146.2,100.7 153.3,112.4 156.5,117.1 158.9,123.3 159.4,128 160.9,121.2 163.3,115 165.3,110.9 
				168.5,105.4 			"/>
		</g>
		<circle class="st9" cx="158.9" cy="97.1" r="5.3"/>
	</g>
	<g>
		<g>
			<path class="st8" d="M111.9,141.2c0,7.2-5.8,13.1-13.1,13.1c-6.6,0-12-4.8-12.9-11.1c-0.1-0.6-0.1-1.3-0.1-1.9
				c0-7.2,5.8-13.1,13.1-13.1C106,128.1,111.9,134,111.9,141.2z"/>
			<polyline class="st8" points="86.3,144.6 93.4,156.3 96.6,161 99,167.2 99.6,171.9 101,165.1 103.4,159 105.4,154.9 108.7,149.3 
							"/>
		</g>
		<circle class="st9" cx="98.9" cy="141.1" r="5.3"/>
	</g>
</g>
</svg>
